<svg width="360" height="160" viewBox="0 0 360 160" fill="none" xmlns="http://www.w3.org/2000/svg">
<g clip-path="url(#clip0_22635_103882)">
<path d="M184.113 97.3212C183.441 95.7951 183.105 94.6081 182.769 93.7603C182.434 92.9124 181.93 92.0646 181.426 91.2167C180.923 90.3689 180.251 89.8602 179.244 89.3515C178.404 88.8428 177.397 88.5037 176.053 88.5037C174.71 88.5037 173.703 88.8428 172.696 89.3515C171.856 89.8602 171.184 90.3689 170.681 91.2167C170.177 92.0646 169.673 93.082 169.17 94.269C168.666 95.4559 168.33 96.6429 167.826 97.4908L156.074 127.843C155.57 129.03 155.234 130.048 155.066 130.726C154.73 131.404 154.73 132.083 154.73 132.761C154.73 133.778 155.066 134.796 156.074 135.644C156.913 136.491 158.088 137 159.264 137C160.607 137 161.614 136.491 162.118 135.644C162.79 134.965 163.629 133.27 164.469 130.896L166.651 124.961L169.17 117.839L175.886 98.5082L182.937 117.839L185.456 124.961L187.638 130.896L188.814 133.439C189.15 134.287 189.485 134.965 189.989 135.474C190.325 135.983 190.661 136.322 191.164 136.491C191.836 136.83 192.34 137 193.179 137C194.354 137 195.53 136.491 196.369 135.644C197.377 134.796 197.712 133.778 197.712 132.591C197.712 131.574 197.209 129.878 196.369 127.674L184.113 97.3212Z" fill="#1B1B37"/>
<path d="M84.55 97.3212L83.039 93.7603C82.7032 92.9124 82.1995 92.0646 81.6958 91.2167C81.1921 90.3689 80.5205 89.8602 79.5131 89.3515C78.6736 88.8428 77.6662 88.5037 76.323 88.5037C74.9799 88.5037 73.9725 88.8428 73.133 89.3515C72.1256 89.8602 71.454 90.3689 70.9503 91.2167C70.4466 92.0646 69.9429 93.082 69.4392 94.269C68.9355 95.4559 68.5997 96.6429 68.2639 97.4908L56.3432 127.843C55.8395 129.03 55.5037 130.048 55.3358 130.726C55 131.404 55 132.083 55 132.761C55 133.778 55.5037 134.796 56.3432 135.644C57.1827 136.491 58.358 137 59.5332 137C60.8764 137 61.8838 136.491 62.5554 135.644C63.0591 134.965 63.8986 133.27 64.7381 130.896L66.9208 124.961L69.4392 117.839L76.323 98.5082L83.2069 117.839L85.7253 124.961L87.908 130.896L89.0833 133.439C89.4191 134.287 89.9228 134.965 90.2586 135.474C90.5944 135.983 90.9302 136.322 91.6017 136.491C92.1054 136.83 92.6091 137 93.4486 137C94.6239 137 95.7992 136.491 96.6387 135.644C97.6461 134.796 97.9819 133.778 97.9819 132.591C97.9819 131.574 97.4782 129.878 96.6387 127.674L84.55 97.3212Z" fill="#1B1B37"/>
<path d="M143.987 129.539C143.315 128.691 142.14 128.352 140.629 128.352H121.488V94.269C121.488 92.4037 120.985 90.8776 120.313 90.0298C119.306 89.0124 118.298 88.5037 116.787 88.5037C115.444 88.5037 114.269 89.0124 113.429 90.0298C112.59 90.8776 112.086 92.4037 112.086 94.269V130.387C112.086 132.422 112.59 133.948 113.429 134.796C114.437 135.644 115.78 136.152 117.962 136.152H140.629C142.14 136.152 143.315 135.813 144.154 135.135C144.826 134.457 145.33 133.439 145.33 132.252C145.33 131.235 144.826 130.217 143.987 129.539Z" fill="#1B1B37"/>
<path d="M300.634 88.5037C299.291 88.5037 298.283 89.0124 297.612 89.8602C296.772 90.708 296.436 92.0646 296.436 93.9298V121.909L278.303 94.269C277.8 93.4211 277.296 92.5733 276.792 91.895C276.457 91.0472 275.953 90.5385 275.449 90.0298C274.946 89.5211 274.442 89.1819 273.938 88.8428C273.267 88.6732 272.595 88.5037 271.755 88.5037C270.58 88.5037 269.573 88.8428 268.733 89.3515C267.726 90.0298 267.054 90.8776 266.719 91.7254C266.383 92.5733 266.215 93.7603 266.215 95.4559V131.574C266.215 133.27 266.551 134.626 267.39 135.644C268.23 136.491 269.237 137 270.58 137C271.923 137 272.931 136.491 273.77 135.644C274.61 134.626 274.946 133.27 274.946 131.574V104.104L292.575 131.404L294.086 133.609C294.59 134.287 295.261 134.965 295.765 135.474C296.436 135.983 296.94 136.322 297.612 136.661C298.283 136.83 299.123 137 299.962 137C303.32 137 304.999 134.965 304.999 130.896V93.9298C304.999 92.2342 304.663 90.8776 303.824 89.8602C302.984 89.0124 301.977 88.5037 300.634 88.5037Z" fill="#1B1B37"/>
<path d="M238.177 97.3212C237.505 95.7951 237.17 94.6081 236.834 93.7603C236.498 92.9124 235.994 92.0646 235.491 91.2167C234.987 90.3689 234.148 89.8602 233.308 89.3515C232.469 88.8428 231.293 88.5037 230.118 88.5037C228.775 88.5037 227.599 88.8428 226.76 89.3515C225.921 89.8602 225.249 90.3689 224.745 91.2167C224.074 92.0646 223.738 93.082 223.234 94.269L221.891 97.4908L210.138 127.843C209.634 129.03 209.299 130.048 208.963 130.726C208.795 131.404 208.795 132.083 208.795 132.761C208.795 133.778 209.131 134.796 210.138 135.644C210.978 136.491 211.985 137 213.16 137C214.671 137 215.679 136.491 216.182 135.644C216.854 134.965 217.358 133.27 218.365 130.896L220.716 124.961L223.066 117.839L229.95 98.5082L237.002 117.839L239.52 124.961L241.703 130.896L242.878 133.439C243.214 134.287 243.55 134.965 243.886 135.474C244.389 135.983 244.725 136.322 245.229 136.491C245.732 136.83 246.404 137 247.244 137C248.419 137 249.594 136.491 250.434 135.644C251.273 134.796 251.777 133.778 251.777 132.591C251.777 131.574 251.105 129.878 250.266 127.674L238.177 97.3212Z" fill="#1B1B37"/>
<path d="M137.269 34.0045C139.956 34.0045 142.306 31.6306 142.306 28.9175C142.306 26.2044 139.956 24 137.269 24C134.583 24 132.4 26.2044 132.4 28.9175C132.4 31.6306 134.583 34.0045 137.269 34.0045Z" fill="#1B1B37"/>
<path d="M173.704 34.5132C173.704 32.1392 175.551 31.1218 177.902 31.1218C183.106 31.1218 184.785 35.0219 189.99 35.0219C194.859 35.0219 197.21 31.4609 197.21 28.0696C197.21 27.0522 197.042 26.2043 196.706 25.3565H195.195C194.859 27.9 192.509 28.0696 190.158 28.0696C186.296 28.0696 182.771 24.5087 178.909 24.5087C174.208 24.5087 171.521 27.7305 171.521 31.4609C171.521 32.4784 171.857 33.4958 172.193 34.5132H173.704Z" fill="#1B1B37"/>
<path d="M211.312 24C208.122 24 206.611 25.6957 206.611 29.7653V63.8484H190.157V44.5177C190.157 40.7872 188.478 38.7524 185.792 38.7524C183.105 38.7524 181.426 40.4481 181.426 44.5177V63.8484H168.498C166.987 63.8484 165.812 64.1876 165.14 65.0354C164.301 65.7137 163.797 66.7311 163.797 67.7485C163.797 68.9355 164.301 69.9529 164.972 70.6312C165.812 71.3094 166.987 71.6486 168.498 71.6486H205.268C211.984 71.6486 216.013 69.2746 216.013 60.4571V29.7653C216.013 26.0348 214.334 24 211.312 24Z" fill="#1B1B37"/>
<path d="M236.162 24C232.972 24 231.461 25.6957 231.461 29.7653V66.392C231.461 68.5963 231.965 70.1224 232.636 70.9703C233.644 71.9877 234.651 72.4964 236.162 72.4964C237.505 72.4964 238.681 71.9877 239.52 70.9703C240.36 70.1224 240.863 68.5963 240.863 66.7311V29.7653C240.863 26.0348 239.184 24 236.162 24Z" fill="#1B1B37"/>
<path d="M150.534 38.922C148.351 38.922 146.168 40.109 146.168 44.5177V56.2179C146.168 63.0006 142.978 65.205 137.102 65.205C132.233 65.205 127.867 64.3572 127.867 56.5571V44.5177C127.867 40.109 125.685 38.922 123.502 38.922C121.319 38.922 119.137 40.109 119.137 44.5177V56.5571C119.137 65.3746 124.342 72.4964 137.102 72.4964C150.03 72.4964 154.899 65.8833 154.899 56.5571V44.5177C154.899 40.109 152.716 38.922 150.534 38.922Z" fill="#1B1B37"/>
</g>
<defs>
<clipPath id="clip0_22635_103882">
<rect width="250" height="113" fill="white" transform="translate(55 24)"/>
</clipPath>
</defs>
</svg>
